<svg xmlns="http://www.w3.org/2000/svg" width="1120.121" height="412.59" viewBox="0 0 1120.121 412.59">
  <defs>
    <style>
      .cls-1 {
        fill: none;
        stroke: #fff;
        stroke-width: 4px;
        fill-rule: evenodd;
      }
    </style>
  </defs>
  <path id="jump_camp_kopie" data-name="jump camp kopie" class="cls-1" d="M503.078,1570.84q23.662-4.44,38.013-21.93t14.347-41.58V1348.12q0-3.045-2.958-2.49L530,1349.85a3.29,3.29,0,0,0-2.959,3.6v159.82a34.784,34.784,0,0,1-6.656,21.23,27.069,27.069,0,0,1-17.305,11.03q-10.65,1.995-17.306-4.53t-6.656-18.73v-24.7c0-2.03-.989-2.87-2.958-2.5l-22.482,4.22a3.3,3.3,0,0,0-2.958,3.61v24.09q0,24.1,14.347,36.2t38.013,7.65h0Zm135.189-25.38a61.8,61.8,0,0,0,39.049-23.95q14.788-19.4,14.791-46.55v-152.5q0-3.045-2.959-2.49l-22.482,4.22a3.3,3.3,0,0,0-2.958,3.61v155.55q0,14.34-6.952,24.48a28.021,28.021,0,0,1-18.489,12.32q-11.246,2.1-18.193-5.43t-6.951-21.88V1337.29c0-2.03-.99-2.86-2.959-2.49l-22.482,4.22a3.289,3.289,0,0,0-2.958,3.6v152.5q0,27.15,14.643,41.02t38.9,9.32h0Zm85.785-18.54,22.483-4.23a3.287,3.287,0,0,0,2.958-3.6V1380.62c0-.61.148-0.94,0.444-1a1.352,1.352,0,0,1,1.035.42l27.511,55.53a2.464,2.464,0,0,0,2.959,1.58q1.476-.285,2.366-2.58l27.512-65.56a2.007,2.007,0,0,1,1.035-.8c0.3-.06.444,0.22,0.444,0.83V1507.2q0,3.06,2.958,2.5l22.482-4.22a3.3,3.3,0,0,0,2.958-3.61v-207.4q0-3.045-2.958-2.49l-22.482,4.22a4.155,4.155,0,0,0-3.254,3.05l-30.766,79.89a1.216,1.216,0,0,1-.887.78,0.762,0.762,0,0,1-.888-0.45l-30.173-68.45a2.649,2.649,0,0,0-3.254-1.83l-22.483,4.23a3.29,3.29,0,0,0-2.958,3.6v207.4q0,3.06,2.958,2.5h0Zm201.455-251.63-52.952,9.94a3.3,3.3,0,0,0-2.958,3.61v207.7q0,3.06,2.958,2.49l22.483-4.22a3.293,3.293,0,0,0,2.958-3.6v-88.45a1.312,1.312,0,0,1,1.183-1.44l27.807-5.22q22.187-4.17,35.795-23.19,13.6-19.035,13.608-45.87,0-27.45-14.052-41.74t-36.83-10.01h0Zm-4.437,98.43-21.891,4.11a0.874,0.874,0,0,1-1.183-1v-69.84a1.312,1.312,0,0,1,1.183-1.44l21.891-4.11q12.126-2.28,19.524,6.24t7.4,25.3q0,16.47-7.4,27.47t-19.524,13.27h0Zm178.67,85.1q24.255-4.545,38.9-22.4t14.65-42.86v-4.57c0-2.03-.99-2.87-2.96-2.5l-22.49,3.01a3.286,3.286,0,0,0-2.95,3.6v7.93q0,12.51-6.96,21.44a29.136,29.136,0,0,1-18.19,11.04q-11.25,2.1-18.04-4.24-6.81-6.345-6.81-18.85V1298.18q0-12.51,6.81-21.41a28.515,28.515,0,0,1,18.04-11.01q11.235-2.115,18.19,4.21t6.96,18.82v7.93q0,3.06,2.95,2.5l22.49-5.45a3.294,3.294,0,0,0,2.96-3.6v-4.88q0-25.005-14.65-37.21-14.64-12.18-38.9-7.64-23.955,4.5-38.6,22.19t-14.65,42.71v108.27q0,25.02,14.65,37.36t38.6,7.85h0Zm163.29-33.1,23.08-4.33a2.96,2.96,0,0,0,2.66-3.24v-0.61l-44.67-199.02q-0.3-2.685-3.25-2.13l-26.03,4.89a3.873,3.873,0,0,0-3.26,3.35l-44.08,215.68a2.561,2.561,0,0,0,.45,2.35,2.279,2.279,0,0,0,2.22.5l22.48-4.22a3.578,3.578,0,0,0,3.25-3.35l6.81-36.36a1.244,1.244,0,0,1,.44-0.99,2.109,2.109,0,0,1,1.04-.5l47.62-8.95a1.7,1.7,0,0,1,1.04.11,0.861,0.861,0,0,1,.44.84l6.51,33.85a2.474,2.474,0,0,0,3.25,2.13h0Zm-55.31-53.05,20.11-108.09a1.415,1.415,0,0,1,.59-1.02c0.2-.04.4,0.23,0.6,0.8L1248.54,1365a1.185,1.185,0,0,1-.89,1.39l-39.05,7.33c-0.59.11-.88-0.24-0.88-1.05h0Zm106.78,43.39,22.49-4.22a3.29,3.29,0,0,0,2.95-3.61V1269.76q0-.915.45-0.99a1.291,1.291,0,0,1,1.03.41l27.52,55.53a2.454,2.454,0,0,0,2.95,1.58q1.485-.27,2.37-2.58l27.51-65.55a2.08,2.08,0,0,1,1.04-.81c0.29-.05.44,0.22,0.44,0.83v138.17q0,3.045,2.96,2.49l22.48-4.22a3.294,3.294,0,0,0,2.96-3.6v-207.4c0-2.03-.99-2.87-2.96-2.5l-22.48,4.22a4.191,4.191,0,0,0-3.26,3.05l-30.76,79.89a1.208,1.208,0,0,1-.89.78,0.76,0.76,0,0,1-.89-0.44l-30.17-68.45a2.631,2.631,0,0,0-3.25-1.83l-22.49,4.22a3.3,3.3,0,0,0-2.95,3.61v207.4q0,3.045,2.95,2.49h0Zm201.46-251.63-52.95,9.94a3.3,3.3,0,0,0-2.96,3.61v207.7c0,2.04.98,2.87,2.96,2.5l22.48-4.22a3.3,3.3,0,0,0,2.96-3.61V1291.9a1.315,1.315,0,0,1,1.18-1.44l27.81-5.22q22.185-4.17,35.79-23.19t13.61-45.87q0-27.45-14.05-41.73t-36.83-10.02h0Zm-4.44,98.44-21.89,4.11a0.877,0.877,0,0,1-1.18-1v-69.85a1.315,1.315,0,0,1,1.18-1.44l21.89-4.11q12.135-2.28,19.53,6.25,7.38,8.52,7.39,25.3,0,16.47-7.39,27.46-7.41,11-19.53,13.28h0Z" transform="translate(-448.719 -1161.44)"/>
</svg>
