<svg version="1.1" xmlns="http://www.w3.org/2000/svg" xmlns:xlink="http://www.w3.org/1999/xlink" width="1095" height="421"><defs/><g><path fill="none" stroke="white" stroke-width="3" paint-order="stroke fill markers" fill-rule="evenodd" d=" M 4.135772705078125 419.15111780166626 C 4.135772705078125 419.15111780166626 26.617996215820312 414.9301619529724 26.617996215820312 414.9301619529724 C 28.587257385253906 414.56010723114014 29.5762939453125 413.3591170310974 29.5762939453125 411.3247365951538 C 29.5762939453125 411.3247365951538 29.5762939453125 272.85431003570557 29.5762939453125 272.85431003570557 C 29.5762939453125 272.2443027496338 29.72441864013672 271.91168308258057 30.020248413085938 271.8558373451233 C 30.316078186035156 271.8006052970886 30.658065795898438 271.9411401748657 31.055442810058594 272.2719187736511 C 31.055442810058594 272.2719187736511 58.5667724609375 327.8016061782837 58.5667724609375 327.8016061782837 C 59.15843200683594 329.1155152320862 60.142852783203125 329.64083337783813 61.52507019042969 329.3812427520752 C 62.509490966796875 329.19652223587036 63.300048828125 328.3379707336426 63.89170837402344 326.8019061088562 C 63.89170837402344 326.8019061088562 91.40303802490234 261.2469882965088 91.40303802490234 261.2469882965088 C 91.7957992553711 260.7676968574524 92.14240264892578 260.4976735115051 92.438232421875 260.44244146347046 C 92.73406219482422 260.3865957260132 92.88218688964844 260.66398334503174 92.88218688964844 261.2739906311035 C 92.88218688964844 261.2739906311035 92.88218688964844 399.43879985809326 92.88218688964844 399.43879985809326 C 92.88218688964844 401.4737939834595 93.86660766601562 402.3041157722473 95.84048461914062 401.93344736099243 C 95.84048461914062 401.93344736099243 118.32270812988281 397.7124915122986 118.32270812988281 397.7124915122986 C 120.29154968261719 397.3430504798889 121.281005859375 396.1420602798462 121.281005859375 394.10706615448 C 121.281005859375 394.10706615448 121.281005859375 186.7070436477661 121.281005859375 186.7070436477661 C 121.281005859375 184.67695903778076 120.29154968261719 183.84295511245728 118.32270812988281 184.21239614486694 C 118.32270812988281 184.21239614486694 95.84048461914062 188.4333519935608 95.84048461914062 188.4333519935608 C 94.25936889648438 188.73037767410278 93.17801666259766 189.7484884262085 92.58635711669922 191.4846158027649 C 92.58635711669922 191.4846158027649 61.820899963378906 271.3759322166443 61.820899963378906 271.3759322166443 C 61.62200164794922 271.8226981163025 61.326171875 272.0786066055298 60.93341064453125 272.1522493362427 C 60.536033630371094 272.2271194458008 60.240203857421875 272.08228874206543 60.045921325683594 271.7091655731201 C 60.045921325683594 271.7091655731201 29.87212371826172 203.2588610649109 29.87212371826172 203.2588610649109 C 29.28046417236328 201.74488925933838 28.194496154785156 201.1336545944214 26.617996215820312 201.43006658554077 C 26.617996215820312 201.43006658554077 4.135772705078125 205.65102243423462 4.135772705078125 205.65102243423462 C 2.1623153686523438 206.0216908454895 1.1774749755859375 207.22636318206787 1.1774749755859375 209.25644779205322 C 1.1774749755859375 209.25644779205322 1.1774749755859375 416.6564702987671 1.1774749755859375 416.6564702987671 C 1.1774749755859375 418.6914644241333 2.1623153686523438 419.52117252349854 4.135772705078125 419.15111780166626 C 4.135772705078125 419.15111780166626 4.135772705078125 419.15111780166626 4.135772705078125 419.15111780166626 Z M 203.81499481201172 384.1014738082886 C 219.98324584960938 381.06616592407227 232.99933624267578 373.08452129364014 242.86326599121094 360.1479482650757 C 252.7225799560547 347.2168984413147 257.65433502197266 331.7034435272217 257.65433502197266 313.6032876968384 C 257.65433502197266 313.6032876968384 257.65433502197266 161.10330724716187 257.65433502197266 161.10330724716187 C 257.65433502197266 159.0732226371765 256.66529846191406 158.23921871185303 254.69603729248047 158.6086597442627 C 254.69603729248047 158.6086597442627 232.21381378173828 162.82961559295654 232.21381378173828 162.82961559295654 C 230.23993682861328 163.20028400421143 229.2555160522461 164.4049563407898 229.2555160522461 166.43504095077515 C 229.2555160522461 166.43504095077515 229.2555160522461 321.98505783081055 229.2555160522461 321.98505783081055 C 229.2555160522461 331.54511165618896 226.9350357055664 339.70595359802246 222.30372619628906 346.4706521034241 C 217.6678009033203 353.24087381362915 211.5061492919922 357.34277391433716 203.81499481201172 358.7867851257324 C 196.3177032470703 360.19397497177124 190.25340270996094 358.3878870010376 185.6220932006836 353.35747480392456 C 180.98574829101562 348.332585811615 178.67030334472656 341.0425691604614 178.67030334472656 331.482515335083 C 178.67030334472656 331.482515335083 178.67030334472656 175.9324984550476 178.67030334472656 175.9324984550476 C 178.67030334472656 173.90241384506226 177.68084716796875 173.06840991973877 175.71200561523438 173.43785095214844 C 175.71200561523438 173.43785095214844 153.22936248779297 177.65880680084229 153.22936248779297 177.65880680084229 C 151.2559051513672 178.02947521209717 150.271484375 179.23414754867554 150.271484375 181.2642321586609 C 150.271484375 181.2642321586609 150.271484375 333.7642126083374 150.271484375 333.7642126083374 C 150.271484375 351.8643684387207 155.1524658203125 365.53552770614624 164.9144287109375 374.7825999259949 C 174.6763916015625 384.03458166122437 187.64170837402344 387.1380090713501 203.81499481201172 384.1014738082886 C 203.81499481201172 384.1014738082886 203.81499481201172 384.1014738082886 203.81499481201172 384.1014738082886 Z M 203.81499481201172 146.81170797348022 C 212.49057006835938 145.18297624588013 219.83554077148438 140.65394830703735 225.8536834716797 133.21910095214844 C 231.8672103881836 125.78977680206299 234.87628173828125 117.60009145736694 234.87628173828125 108.6500449180603 C 234.87628173828125 99.70490789413452 231.8672103881836 92.64502477645874 225.8536834716797 87.46916818618774 C 219.83554077148438 82.29883480072021 212.49057006835938 80.52281761169434 203.81499481201172 82.15154933929443 C 195.33328247070312 83.7440733909607 188.08566284179688 88.2596001625061 182.07213592529297 95.68892431259155 C 176.05399322509766 103.12377166748047 173.0495376586914 111.3128433227539 173.0495376586914 120.25798034667969 C 173.0495376586914 129.20741319656372 176.05399322509766 136.26852369308472 182.07213592529297 141.43885707855225 C 188.08566284179688 146.61471366882324 195.33328247070312 148.40423202514648 203.81499481201172 146.81170797348022 C 203.81499481201172 146.81170797348022 203.81499481201172 146.81170797348022 203.81499481201172 146.81170797348022 Z M 204.42176055908203 122.85265922546387 C 202.1138687133789 123.27549123764038 200.1353759765625 122.78208494186401 198.48082733154297 121.36875820159912 C 196.82669830322266 119.95727252960205 195.99921417236328 118.04010677337646 195.99921417236328 115.61910200119019 C 195.99921417236328 113.0986795425415 196.82669830322266 110.82864236831665 198.48082733154297 108.80899047851562 C 200.1353759765625 106.79179334640503 202.1138687133789 105.57116508483887 204.42176055908203 105.14833307266235 C 206.82784271240234 104.70770406723022 208.85836791992188 105.1937460899353 210.5129165649414 106.60461807250977 C 212.16704559326172 108.01794481277466 212.9945297241211 109.98481941223145 212.9945297241211 112.50524187088013 C 212.9945297241211 114.9262466430664 212.14144897460938 117.15148448944092 210.43780517578125 119.17788696289062 C 208.7316436767578 121.20674419403076 206.72713470458984 122.42982721328735 204.42176055908203 122.85265922546387 C 204.42176055908203 122.85265922546387 204.42176055908203 122.85265922546387 204.42176055908203 122.85265922546387 Z M 326.57763671875 361.05314016342163 C 342.3531265258789 358.0914750099182 355.0226135253906 350.78550243377686 364.59071350097656 339.1241760253906 C 374.1537780761719 327.46837282180786 378.93782806396484 313.60758352279663 378.93782806396484 297.54303550720215 C 378.93782806396484 297.54303550720215 378.93782806396484 138.33297491073608 378.93782806396484 138.33297491073608 C 378.93782806396484 136.30289030075073 377.94879150390625 135.46827268600464 375.97953033447266 135.8383274078369 C 375.97953033447266 135.8383274078369 353.49730682373047 140.05928325653076 353.49730682373047 140.05928325653076 C 351.52342987060547 140.42995166778564 350.5390090942383 141.634624004364 350.5390090942383 143.66470861434937 C 350.5390090942383 143.66470861434937 350.5390090942383 303.4847764968872 350.5390090942383 303.4847764968872 C 350.5390090942383 311.6198434829712 348.32049560546875 318.69384145736694 343.88304901123047 324.7116799354553 C 339.4456024169922 330.7301321029663 333.67713165283203 334.40551805496216 326.57763671875 335.7384514808655 C 319.47772216796875 337.0713849067688 313.7092514038086 335.56170892715454 309.27222442626953 331.2100372314453 C 304.83477783203125 326.8577518463135 302.6162643432617 320.6171441078186 302.6162643432617 312.4820771217346 C 302.6162643432617 312.4820771217346 302.6162643432617 287.77678203582764 302.6162643432617 287.77678203582764 C 302.6162643432617 285.7466974258423 301.6268081665039 284.9126935005188 299.65796661376953 285.28213453292847 C 299.65796661376953 285.28213453292847 277.1753234863281 289.5037040710449 277.1753234863281 289.5037040710449 C 275.20186614990234 289.8737587928772 274.21744537353516 291.07843112945557 274.21744537353516 293.1091294288635 C 274.21744537353516 293.1091294288635 274.21744537353516 317.2038035392761 274.21744537353516 317.2038035392761 C 274.21744537353516 333.2689652442932 278.9964599609375 345.3340992927551 288.56455993652344 353.39797830581665 C 298.12804412841797 361.46676683425903 310.7975311279297 364.01603269577026 326.57763671875 361.05314016342163 C 326.57763671875 361.05314016342163 326.57763671875 361.05314016342163 326.57763671875 361.05314016342163 Z M 465.61175537109375 332.50983142852783 C 465.61175537109375 332.50983142852783 488.09397888183594 328.288875579834 488.09397888183594 328.288875579834 C 490.06324005126953 327.9194345474243 491.0522766113281 326.7184443473816 491.0522766113281 324.6834502220154 C 491.0522766113281 324.6834502220154 491.0522766113281 186.21363735198975 491.0522766113281 186.21363735198975 C 491.0522766113281 185.60363006591797 491.20040130615234 185.27101039886475 491.49623107910156 185.21516466140747 C 491.79164123535156 185.1599326133728 492.13404846191406 185.3004674911499 492.5314254760742 185.6312460899353 C 492.5314254760742 185.6312460899353 520.0427551269531 241.16093349456787 520.0427551269531 241.16093349456787 C 520.6344146728516 242.47484254837036 521.6188354492188 243.00016069412231 523.0010528564453 242.74057006835938 C 523.9854736328125 242.55584955215454 524.7760314941406 241.69729804992676 525.3676910400391 240.16123342514038 C 525.3676910400391 240.16123342514038 552.879020690918 174.60570192337036 552.879020690918 174.60570192337036 C 553.2717819213867 174.12702417373657 553.6183853149414 173.8570008277893 553.9142150878906 173.80176877975464 C 554.2100448608398 173.74592304229736 554.3581695556641 174.02331066131592 554.3581695556641 174.6333179473877 C 554.3581695556641 174.6333179473877 554.3581695556641 312.79812717437744 554.3581695556641 312.79812717437744 C 554.3581695556641 314.83312129974365 555.3425903320312 315.6634430885315 557.316047668457 315.2927746772766 C 557.316047668457 315.2927746772766 579.7986907958984 311.07181882858276 579.7986907958984 311.07181882858276 C 581.7675323486328 310.7023777961731 582.7569885253906 309.50138759613037 582.7569885253906 307.46639347076416 C 582.7569885253906 307.46639347076416 582.7569885253906 100.0663709640503 582.7569885253906 100.0663709640503 C 582.7569885253906 98.03628635406494 581.7675323486328 97.20228242874146 579.7986907958984 97.57172346115112 C 579.7986907958984 97.57172346115112 557.316047668457 101.79267930984497 557.316047668457 101.79267930984497 C 555.7353515625 102.08970499038696 554.6539993286133 103.10781574249268 554.0623397827148 104.84394311904907 C 554.0623397827148 104.84394311904907 523.2968826293945 184.73464584350586 523.2968826293945 184.73464584350586 C 523.0979843139648 185.18202543258667 522.8021545410156 185.43793392181396 522.4093933105469 185.51157665252686 C 522.0115966796875 185.58583307266235 521.7161865234375 185.4416160583496 521.5219039916992 185.0678791999817 C 521.5219039916992 185.0678791999817 491.34810638427734 116.61818838119507 491.34810638427734 116.61818838119507 C 490.7564468383789 115.10421657562256 489.67005920410156 114.49298191070557 488.09397888183594 114.78878021240234 C 488.09397888183594 114.78878021240234 465.61175537109375 119.0103497505188 465.61175537109375 119.0103497505188 C 463.63787841796875 119.38040447235107 462.65345764160156 120.58507680892944 462.65345764160156 122.6151614189148 C 462.65345764160156 122.6151614189148 462.65345764160156 330.01518392562866 462.65345764160156 330.01518392562866 C 462.65345764160156 332.0501780509949 463.63787841796875 332.8804998397827 465.61175537109375 332.50983142852783 C 465.61175537109375 332.50983142852783 465.61175537109375 332.50983142852783 465.61175537109375 332.50983142852783 Z M 710.5525131225586 95.2881851196289 C 710.5525131225586 95.2881851196289 710.5525131225586 76.07295560836792 710.5525131225586 76.07295560836792 C 710.5525131225586 74.04287099838257 709.5630569458008 73.20886707305908 707.5942153930664 73.57830810546875 C 707.5942153930664 73.57830810546875 614.4103546142578 91.07336616516113 614.4103546142578 91.07336616516113 C 612.436897277832 91.44403457641602 611.4524765014648 92.64870691299438 611.4524765014648 94.67879152297974 C 611.4524765014648 94.67879152297974 611.4524765014648 302.0788140296936 611.4524765014648 302.0788140296936 C 611.4524765014648 304.1138081550598 612.436897277832 304.94412994384766 614.4103546142578 304.5734615325928 C 614.4103546142578 304.5734615325928 707.5942153930664 287.0784034729004 707.5942153930664 287.0784034729004 C 709.5630569458008 286.7089624404907 710.5525131225586 285.507972240448 710.5525131225586 283.4729781150818 C 710.5525131225586 283.4729781150818 710.5525131225586 264.2583622932434 710.5525131225586 264.2583622932434 C 710.5525131225586 262.22827768325806 709.5630569458008 261.39366006851196 707.5942153930664 261.76371479034424 C 707.5942153930664 261.76371479034424 641.0346145629883 274.25965881347656 641.0346145629883 274.25965881347656 C 640.2440567016602 274.40817165374756 639.8512954711914 274.07677936553955 639.8512954711914 273.2624135017395 C 639.8512954711914 273.2624135017395 639.8512954711914 206.77223300933838 639.8512954711914 206.77223300933838 C 639.8512954711914 205.96216297149658 640.2440567016602 205.47857570648193 641.0346145629883 205.33006286621094 C 641.0346145629883 205.33006286621094 681.8578643798828 197.66569566726685 681.8578643798828 197.66569566726685 C 683.8267059326172 197.29564094543457 684.8157424926758 196.09526443481445 684.8157424926758 194.06027030944824 C 684.8157424926758 194.06027030944824 684.8157424926758 174.84504079818726 684.8157424926758 174.84504079818726 C 684.8157424926758 172.8149561882019 683.8267059326172 171.98095226287842 681.8578643798828 172.3503932952881 C 681.8578643798828 172.3503932952881 641.0346145629883 180.01476049423218 641.0346145629883 180.01476049423218 C 640.2440567016602 180.16327333450317 639.8512954711914 179.83188104629517 639.8512954711914 179.0169014930725 C 639.8512954711914 179.0169014930725 639.8512954711914 112.83233833312988 639.8512954711914 112.83233833312988 C 639.8512954711914 112.02165460586548 640.2440567016602 111.53806734085083 641.0346145629883 111.39016819000244 C 641.0346145629883 111.39016819000244 707.5942153930664 98.89361047744751 707.5942153930664 98.89361047744751 C 709.5630569458008 98.52416944503784 710.5525131225586 97.32317924499512 710.5525131225586 95.2881851196289 C 710.5525131225586 95.2881851196289 710.5525131225586 95.2881851196289 710.5525131225586 95.2881851196289 Z M 815.5662078857422 266.80701446533203 C 815.5662078857422 266.80701446533203 838.640510559082 262.47498083114624 838.640510559082 262.47498083114624 C 840.4150695800781 262.1417474746704 841.3025588989258 261.2647852897644 841.3025588989258 259.8404121398926 C 841.3025588989258 259.8404121398926 841.0067291259766 258.6756296157837 841.0067291259766 258.6756296157837 C 841.0067291259766 258.6756296157837 810.5371017456055 170.1515440940857 810.5371017456055 170.1515440940857 C 810.338623046875 169.57835817337036 810.5371017456055 168.93152952194214 811.1287612915039 168.21044445037842 C 820.0036544799805 162.4791989326477 827.052375793457 154.39322710037231 832.2799606323242 143.9568247795105 C 837.5033493041992 133.5210361480713 840.1192398071289 121.89714479446411 840.1192398071289 109.0876054763794 C 840.1192398071289 97.2974042892456 837.9976577758789 87.17275619506836 833.7591094970703 78.71366119384766 C 829.5159454345703 70.26070308685303 823.5536117553711 64.21218013763428 815.8620376586914 60.57177448272705 C 808.1708831787109 56.935664653778076 799.2959899902344 56.05686140060425 789.2381973266602 57.945183753967285 C 789.2381973266602 57.945183753967285 736.2863464355469 67.88695240020752 736.2863464355469 67.88695240020752 C 734.3124694824219 68.2570071220398 733.3280487060547 69.46167945861816 733.3280487060547 71.49237775802612 C 733.3280487060547 71.49237775802612 733.3280487060547 279.19679021835327 733.3280487060547 279.19679021835327 C 733.3280487060547 281.2317843437195 734.3124694824219 282.0621061325073 736.2863464355469 281.69143772125244 C 736.2863464355469 281.69143772125244 758.7685699462891 277.4704818725586 758.7685699462891 277.4704818725586 C 760.7378311157227 277.1010408401489 761.7268676757812 275.9000506401062 761.7268676757812 273.86505651474 C 761.7268676757812 273.86505651474 761.7268676757812 183.28020191192627 761.7268676757812 183.28020191192627 C 761.7268676757812 182.47013187408447 762.11962890625 181.98654460906982 762.9101867675781 181.83803176879883 C 762.9101867675781 181.83803176879883 783.3216018676758 178.0061550140381 783.3216018676758 178.0061550140381 C 783.9132614135742 177.89507722854614 784.3064422607422 178.12582445144653 784.5049209594727 178.69901037216187 C 784.5049209594727 178.69901037216187 812.0162506103516 265.0334520339966 812.0162506103516 265.0334520339966 C 812.60791015625 266.55233335494995 813.7912292480469 267.14024782180786 815.5662078857422 266.80701446533203 C 815.5662078857422 266.80701446533203 815.5662078857422 266.80701446533203 815.5662078857422 266.80701446533203 Z M 762.9101867675781 88.20314073562622 C 762.9101867675781 88.20314073562622 784.8007507324219 84.09326267242432 784.8007507324219 84.09326267242432 C 792.8850860595703 82.57560873031616 799.3933410644531 84.55598449707031 804.3250961303711 90.03500366210938 C 809.2522354125977 95.51525020599365 811.7204208374023 103.74421167373657 811.7204208374023 114.72434282302856 C 811.7204208374023 125.29882526397705 809.2522354125977 134.2500991821289 804.3250961303711 141.58000564575195 C 799.3933410644531 148.91113948822021 792.8850860595703 153.33522653579712 784.8007507324219 154.85349416732788 C 784.8007507324219 154.85349416732788 762.9101867675781 158.96337223052979 762.9101867675781 158.96337223052979 C 762.11962890625 159.11127138137817 761.7268676757812 158.78049278259277 761.7268676757812 157.96551322937012 C 761.7268676757812 157.96551322937012 761.7268676757812 89.64531087875366 761.7268676757812 89.64531087875366 C 761.7268676757812 88.83524084091187 762.11962890625 88.35165357589722 762.9101867675781 88.20314073562622 C 762.9101867675781 88.20314073562622 762.9101867675781 88.20314073562622 762.9101867675781 88.20314073562622 Z M 910.5212707519531 251.41936588287354 C 926.6895217895508 248.38405799865723 939.6594543457031 240.91668510437012 949.4214172363281 229.01847457885742 C 959.1837997436523 217.12087774276733 964.0647811889648 202.83664274215698 964.0647811889648 186.16208744049072 C 964.0647811889648 186.16208744049072 964.0647811889648 181.5870327949524 964.0647811889648 181.5870327949524 C 964.0647811889648 179.55694818496704 963.0757446289062 178.72294425964355 961.1064834594727 179.09238529205322 C 961.1064834594727 179.09238529205322 938.6242599487305 182.09332656860352 938.6242599487305 182.09332656860352 C 936.6503829956055 182.4639949798584 935.6659622192383 183.66866731643677 935.6659622192383 185.69875192642212 C 935.6659622192383 185.69875192642212 935.6659622192383 193.62884664535522 935.6659622192383 193.62884664535522 C 935.6659622192383 201.9688858985901 933.3454818725586 209.1140718460083 928.7141723632812 215.06379079818726 C 924.0782470703125 221.01903295516968 918.0135269165039 224.69810104370117 910.5212707519531 226.10467720031738 C 903.0239791870117 227.5124807357788 897.0104522705078 226.10099506378174 892.47607421875 221.86776542663574 C 887.9370803833008 217.6394453048706 885.671989440918 211.354651927948 885.671989440918 203.01461267471313 C 885.671989440918 203.01461267471313 885.671989440918 90.77511310577393 885.671989440918 90.77511310577393 C 885.671989440918 82.43998336791992 887.9370803833008 75.30461645126343 892.47607421875 69.36778497695923 C 897.0104522705078 63.43586301803589 903.0239791870117 59.76231813430786 910.5212707519531 58.354514598846436 C 918.0135269165039 56.947938442230225 924.0782470703125 58.35390090942383 928.7141723632812 62.56381034851074 C 933.3454818725586 66.77924299240112 935.6659622192383 73.0536036491394 935.6659622192383 81.38873338699341 C 935.6659622192383 81.38873338699341 935.6659622192383 89.31882810592651 935.6659622192383 89.31882810592651 C 935.6659622192383 91.35382223129272 936.6503829956055 92.18414402008057 938.6242599487305 91.81347560882568 C 938.6242599487305 91.81347560882568 961.1064834594727 86.37250518798828 961.1064834594727 86.37250518798828 C 963.0757446289062 86.002450466156 964.0647811889648 84.80207395553589 964.0647811889648 82.76707983016968 C 964.0647811889648 82.76707983016968 964.0647811889648 77.88702154159546 964.0647811889648 77.88702154159546 C 964.0647811889648 61.21676206588745 959.1837997436523 48.81348514556885 949.4214172363281 40.68087291717529 C 939.6594543457031 32.553783893585205 926.6895217895508 30.003904342651367 910.5212707519531 33.03982591629028 C 894.5468826293945 36.038926124572754 881.6784973144531 43.439406871795654 871.9165344238281 55.23267650604248 C 862.1545715332031 67.03024196624756 857.2731704711914 81.26660919189453 857.2731704711914 97.93686866760254 C 857.2731704711914 97.93686866760254 857.2731704711914 206.2119345664978 857.2731704711914 206.2119345664978 C 857.2731704711914 222.88648986816406 862.1545715332031 235.33763456344604 871.9165344238281 243.5702781677246 C 881.6784973144531 251.80230808258057 894.5468826293945 254.418466091156 910.5212707519531 251.41936588287354 C 910.5212707519531 251.41936588287354 910.5212707519531 251.41936588287354 910.5212707519531 251.41936588287354 Z M 1064.642707824707 9.59382152557373 C 1064.642707824707 9.59382152557373 1064.642707824707 99.26366519927979 1064.642707824707 99.26366519927979 C 1064.642707824707 100.07864475250244 1064.2449111938477 100.55854988098145 1063.4593887329102 100.70583534240723 C 1063.4593887329102 100.70583534240723 1018.7903518676758 109.09251499176025 1018.7903518676758 109.09251499176025 C 1017.9997940063477 109.24102783203125 1017.6070327758789 108.90963554382324 1017.6070327758789 108.09465599060059 C 1017.6070327758789 108.09465599060059 1017.6070327758789 18.424198627471924 1017.6070327758789 18.424198627471924 C 1017.6070327758789 16.394114017486572 1016.6179962158203 15.560110092163086 1014.6487350463867 15.930164813995361 C 1014.6487350463867 15.930164813995361 992.1665115356445 20.15112066268921 992.1665115356445 20.15112066268921 C 990.1926345825195 20.521175384521484 989.2082138061523 21.72646141052246 989.2082138061523 23.756546020507812 C 989.2082138061523 23.756546020507812 989.2082138061523 231.15656852722168 989.2082138061523 231.15656852722168 C 989.2082138061523 233.19094896316528 990.1926345825195 234.02127075195312 992.1665115356445 233.65121603012085 C 992.1665115356445 233.65121603012085 1014.6487350463867 229.4296464920044 1014.6487350463867 229.4296464920044 C 1016.6179962158203 229.06020545959473 1017.6070327758789 227.859215259552 1017.6070327758789 225.8242211341858 C 1017.6070327758789 225.8242211341858 1017.6070327758789 135.84937381744385 1017.6070327758789 135.84937381744385 C 1017.6070327758789 135.03930377960205 1017.9997940063477 134.5557165145874 1018.7903518676758 134.4072036743164 C 1018.7903518676758 134.4072036743164 1063.4593887329102 126.02113771438599 1063.4593887329102 126.02113771438599 C 1064.2449111938477 125.8732385635376 1064.642707824707 126.20831298828125 1064.642707824707 127.01899671554565 C 1064.642707824707 127.01899671554565 1064.642707824707 216.9938440322876 1064.642707824707 216.9938440322876 C 1064.642707824707 219.0288381576538 1065.6271286010742 219.85915994644165 1067.6005859375 219.48849153518677 C 1067.6005859375 219.48849153518677 1090.0832290649414 215.26753568649292 1090.0832290649414 215.26753568649292 C 1092.0520706176758 214.89748096466064 1093.0415267944336 213.69710445404053 1093.0415267944336 211.66211032867432 C 1093.0415267944336 211.66211032867432 1093.0415267944336 4.262087821960449 1093.0415267944336 4.262087821960449 C 1093.0415267944336 2.2320032119750977 1092.0520706176758 1.397385597229004 1090.0832290649414 1.7674403190612793 C 1090.0832290649414 1.7674403190612793 1067.6005859375 5.988396167755127 1067.6005859375 5.988396167755127 C 1065.6271286010742 6.35906457901001 1064.642707824707 7.563736915588379 1064.642707824707 9.59382152557373 C 1064.642707824707 9.59382152557373 1064.642707824707 9.59382152557373 1064.642707824707 9.59382152557373 Z"/></g></svg>