<svg xmlns="http://www.w3.org/2000/svg" width="908.316" height="631.57" viewBox="0 0 908.316 631.57">
  <defs>
    <style>
      .cls-1 {
        fill: none;
        stroke: #fff;
        stroke-width: 4px;
        fill-rule: evenodd;
      }
    </style>
  </defs>
  <path id="parkour-academy" class="cls-1" d="M629.986,1262.77l-52.952,9.94a3.3,3.3,0,0,0-2.958,3.61v207.7q0,3.06,2.958,2.5l22.483-4.22a3.3,3.3,0,0,0,2.958-3.61v-88.45a1.318,1.318,0,0,1,1.183-1.44l27.807-5.22q22.186-4.17,35.795-23.19t13.607-45.87q0-27.45-14.051-41.74t-36.83-10.01h0Zm-4.437,98.43-21.891,4.11a0.871,0.871,0,0,1-1.183-.99v-69.85a1.318,1.318,0,0,1,1.183-1.44l21.891-4.11q12.126-2.28,19.524,6.25t7.4,25.3q0,16.47-7.4,27.46t-19.524,13.27h0Zm154.122,87.27,23.074-4.33a2.958,2.958,0,0,0,2.662-3.24v-0.61l-44.669-199.02q-0.3-2.685-3.254-2.13l-26.032,4.89a3.876,3.876,0,0,0-3.254,3.35L684.12,1463.06a2.548,2.548,0,0,0,.444,2.35,2.278,2.278,0,0,0,2.219.5l22.482-4.22a3.581,3.581,0,0,0,3.254-3.35l6.8-36.36a1.26,1.26,0,0,1,.444-0.99,2.089,2.089,0,0,1,1.035-.5l47.627-8.95a1.688,1.688,0,0,1,1.036.11,0.854,0.854,0,0,1,.444.84l6.508,33.85a2.477,2.477,0,0,0,3.254,2.13h0Zm-55.319-53.05,20.116-108.09a1.4,1.4,0,0,1,.592-1.02c0.194-.04.392,0.23,0.591,0.8l19.524,100.65a1.177,1.177,0,0,1-.887,1.38l-39.048,7.33q-0.888.165-.888-1.05h0Zm184.59,28.78,23.074-4.33c1.775-.33,2.663-1.21,2.663-2.63l-0.3-1.17-30.47-88.52a2.022,2.022,0,0,1,.592-1.94q13.313-8.595,21.151-24.26a76.8,76.8,0,0,0,7.839-34.87q0-17.685-6.36-30.37t-17.9-18.14q-11.537-5.46-26.624-2.63l-52.952,9.94a3.3,3.3,0,0,0-2.958,3.61v207.7q0,3.06,2.958,2.5l22.483-4.22a3.3,3.3,0,0,0,2.958-3.61v-90.58a1.327,1.327,0,0,1,1.183-1.45l20.412-3.83a0.943,0.943,0,0,1,1.183.69l27.512,86.34q0.887,2.28,3.549,1.77h0Zm-52.656-178.6,21.891-4.11q12.126-2.28,19.524,5.94t7.4,24.69q0,15.87-7.4,26.86t-19.524,13.27l-21.891,4.11a0.874,0.874,0,0,1-1.183-1v-68.32a1.318,1.318,0,0,1,1.183-1.44h0Zm101.463,169.44,22.483-4.22a3.3,3.3,0,0,0,2.958-3.61v-68.62a2.758,2.758,0,0,1,.3-1.58l15.086-27.54q1.179-1.44,1.478.03l38.46,87.94a2.635,2.635,0,0,0,3.25,1.83l24.56-4.61c1.77-.34,2.66-1.31,2.66-2.94l-0.3-1.17-49.4-110.28a2.863,2.863,0,0,1,0-1.83l45.56-93.35c0.59-1.12.69-2,.29-2.64s-1.18-.85-2.36-0.63l-24.26,4.56a5.421,5.421,0,0,0-3.55,2.8l-50.291,102.16a0.988,0.988,0,0,1-.888.93c-0.4-.03-0.591-0.35-0.591-0.96v-91.5q0-3.045-2.958-2.49l-22.483,4.22a3.3,3.3,0,0,0-2.958,3.61v207.4q0,3.045,2.958,2.49h0Zm174.831-30.38q24.555-4.62,39.49-22.67t14.94-43.37V1212.18q0-25.32-14.94-37.92t-39.49-7.98q-24.255,4.545-39.05,22.73t-14.79,43.49v106.45q0,25.32,14.79,37.79t39.05,7.92h0Zm0-25.32q-11.535,2.16-18.49-4.61t-6.95-19.89V1225.65q0-13.11,6.95-22.51a28.86,28.86,0,0,1,18.49-11.55q11.835-2.22,18.93,4.53t7.1,19.86v109.19q0,13.125-7.1,22.53a29.734,29.734,0,0,1-18.93,11.64h0Zm133.12,0.32a61.776,61.776,0,0,0,39.05-23.95q14.775-19.395,14.79-46.54v-152.5c0-2.03-.99-2.87-2.96-2.5l-22.48,4.22a3.3,3.3,0,0,0-2.96,3.61v155.55q0,14.34-6.95,24.48a28.037,28.037,0,0,1-18.49,12.32q-11.25,2.115-18.2-5.43t-6.95-21.88V1151.49q0-3.045-2.96-2.49l-22.48,4.22a3.3,3.3,0,0,0-2.96,3.61v152.5q0,27.15,14.65,41.01,14.64,13.89,38.9,9.32h0Zm165.36-33.48,23.07-4.33c1.78-.34,2.66-1.21,2.66-2.64l-0.29-1.16-30.47-88.53a2.026,2.026,0,0,1,.59-1.94q13.305-8.6,21.15-24.25a76.87,76.87,0,0,0,7.84-34.87q0-17.685-6.36-30.38-6.36-12.675-17.9-18.14-11.535-5.445-26.62-2.62l-52.95,9.94a3.287,3.287,0,0,0-2.96,3.6v207.71c0,2.03.98,2.86,2.96,2.49l22.48-4.22a3.294,3.294,0,0,0,2.96-3.6v-90.59a1.315,1.315,0,0,1,1.18-1.44l20.41-3.83a0.952,0.952,0,0,1,1.19.69l27.51,86.33q0.885,2.28,3.55,1.78h0Zm-52.66-178.61,21.89-4.11q12.135-2.265,19.53,5.95t7.39,24.68q0,15.87-7.39,26.86-7.41,10.995-19.53,13.27l-21.89,4.11a0.869,0.869,0,0,1-1.18-.99v-68.32a1.325,1.325,0,0,1,1.18-1.45h0ZM653.5,1726.39l23.074-4.33a2.967,2.967,0,0,0,2.662-3.25v-0.61l-44.669-199.01q-0.3-2.685-3.254-2.13l-26.032,4.88a3.9,3.9,0,0,0-3.254,3.36L557.95,1740.98a2.553,2.553,0,0,0,.443,2.35,2.278,2.278,0,0,0,2.219.5l22.482-4.22a3.581,3.581,0,0,0,3.254-3.36l6.8-36.35a1.28,1.28,0,0,1,.444-1,2.272,2.272,0,0,1,1.035-.5l47.628-8.94a1.685,1.685,0,0,1,1.035.11,0.848,0.848,0,0,1,.444.83l6.508,33.86a2.482,2.482,0,0,0,3.254,2.13h0Zm-55.319-53.05L618.3,1565.25a1.374,1.374,0,0,1,.592-1.02c0.194-.04.393,0.23,0.591,0.8l19.525,100.64a1.182,1.182,0,0,1-.888,1.39l-39.048,7.33q-0.888.165-.888-1.05h0ZM745.8,1711.5q24.254-4.545,38.9-22.4t14.643-42.85v-4.58q0-3.045-2.958-2.49l-22.483,3a3.29,3.29,0,0,0-2.958,3.6v7.93q0,12.51-6.952,21.44a29.151,29.151,0,0,1-18.193,11.04q-11.245,2.115-18.045-4.24t-6.8-18.85V1550.86q0-12.51,6.8-21.41a28.588,28.588,0,0,1,18.045-11.01q11.24-2.115,18.193,4.21t6.952,18.82v7.93q0,3.06,2.958,2.5l22.483-5.44a3.3,3.3,0,0,0,2.958-3.61v-4.88q0-25.005-14.643-37.21-14.643-12.18-38.9-7.64-23.961,4.5-38.6,22.2-14.643,17.685-14.643,42.7V1666.3q0,25.005,14.643,37.35,14.643,12.36,38.6,7.85h0Zm163.293-33.09,23.074-4.34a2.959,2.959,0,0,0,2.663-3.24v-0.61L890.159,1471.2q-0.3-2.685-3.254-2.13l-26.033,4.89a3.876,3.876,0,0,0-3.254,3.35l-44.077,215.68a2.571,2.571,0,0,0,.444,2.36,2.3,2.3,0,0,0,2.218.49l22.483-4.22a3.573,3.573,0,0,0,3.254-3.35l6.8-36.35a1.268,1.268,0,0,1,.443-1,2.088,2.088,0,0,1,1.036-.5l47.627-8.94a1.551,1.551,0,0,1,1.035.11,0.839,0.839,0,0,1,.444.83l6.508,33.85a2.488,2.488,0,0,0,3.254,2.14h0Zm-55.318-53.06,20.116-108.09a1.425,1.425,0,0,1,.591-1.02c0.194-.04.393,0.23,0.592,0.8L894.6,1617.69a1.177,1.177,0,0,1-.887,1.38l-39.049,7.33q-0.886.18-.887-1.05h0Zm105.31,43.67,48.517-9.11q24.54-4.605,39.05-22.89,14.49-18.27,14.49-44.81V1494q0-26.535-14.49-39.37-14.505-12.825-39.05-8.22l-48.517,9.11a3.289,3.289,0,0,0-2.958,3.6v207.4q0,3.06,2.958,2.5h0Zm25.44-31.31V1477.28a1.312,1.312,0,0,1,1.184-1.44l21.593-4.06q11.535-2.16,18.34,5.71t6.81,23.43v95.16q-0.3,15.6-7.1,25.88t-18.05,12.39l-21.593,4.36a0.879,0.879,0,0,1-1.184-1h0Zm201.747-202.58v-19.21c0-2.03-.99-2.87-2.96-2.5l-93.18,17.5a3.294,3.294,0,0,0-2.96,3.6v207.4q0,3.06,2.96,2.5l93.18-17.5a3.294,3.294,0,0,0,2.96-3.6V1604.1q0-3.045-2.96-2.49l-66.56,12.49a0.872,0.872,0,0,1-1.18-1v-66.49a1.315,1.315,0,0,1,1.18-1.44l40.83-7.66a3.3,3.3,0,0,0,2.96-3.61v-19.21c0-2.03-.99-2.87-2.96-2.5l-40.83,7.67a0.875,0.875,0,0,1-1.18-1v-66.19a1.315,1.315,0,0,1,1.18-1.44l66.56-12.49a3.3,3.3,0,0,0,2.96-3.61h0Zm25.44,186.46,22.48-4.22a3.3,3.3,0,0,0,2.96-3.61V1475.29a0.863,0.863,0,0,1,.44-1,1.361,1.361,0,0,1,1.04.42l27.51,55.53a2.465,2.465,0,0,0,2.96,1.58c0.98-.19,1.77-1.04,2.37-2.58l27.51-65.55a2.107,2.107,0,0,1,1.03-.81c0.3-.05.45,0.22,0.45,0.83v138.17c0,2.03.98,2.86,2.96,2.49l22.48-4.22a3.294,3.294,0,0,0,2.96-3.6v-207.4c0-2.03-.99-2.87-2.96-2.5l-22.48,4.22a4.164,4.164,0,0,0-3.26,3.05l-30.76,79.89a1.208,1.208,0,0,1-.89.78,0.755,0.755,0,0,1-.89-0.44l-30.17-68.45a2.637,2.637,0,0,0-3.26-1.83l-22.48,4.22a3.294,3.294,0,0,0-2.96,3.6v207.4q0,3.06,2.96,2.5h0Zm183.41-34.74,22.48-4.22a3.3,3.3,0,0,0,2.96-3.61v-87.23l0.3-1.58,41.12-125.75q0.885-3.525-2.37-2.91l-23.67,4.44a4.384,4.384,0,0,0-3.55,3.11l-25.14,88.9a1.214,1.214,0,0,1-.89.77,0.76,0.76,0,0,1-.89-0.44l-25.14-79.46c-0.59-1.51-1.78-2.1-3.55-1.77l-23.67,4.44c-1.77.33-2.66,1.22-2.66,2.64l0.3,1.16,41.12,110.32,0.29,1.47v87.23q0,3.045,2.96,2.49h0Z" transform="translate(-555.844 -1114.34)"/>
</svg>
