<svg version="1.1" xmlns="http://www.w3.org/2000/svg" xmlns:xlink="http://www.w3.org/1999/xlink" width="983" height="394"><defs/><g><path fill="none" stroke="white" stroke-width="3" paint-order="stroke fill markers" fill-rule="evenodd" d=" M 54.61272430419922 390.9709310531616 C 70.78181457519531 387.9350094795227 83.79790496826172 379.9539785385132 93.66099548339844 367.01740550994873 C 103.5207290649414 354.08635568618774 108.45248413085938 338.5729007720947 108.45248413085938 320.4727449417114 C 108.45248413085938 320.4727449417114 108.45248413085938 167.9721508026123 108.45248413085938 167.9721508026123 C 108.45248413085938 165.94206619262695 107.46302795410156 165.10806226730347 105.4946060180664 165.47811698913574 C 105.4946060180664 165.47811698913574 83.011962890625 169.69845914840698 83.011962890625 169.69845914840698 C 81.0380859375 170.06974124908447 80.0532455444336 171.27441358566284 80.0532455444336 173.3044981956482 C 80.0532455444336 173.3044981956482 80.0532455444336 328.8545150756836 80.0532455444336 328.8545150756836 C 80.0532455444336 338.4139552116394 77.73318481445312 346.5754108428955 73.10187530517578 353.3388819694519 C 68.46553039550781 360.1097173690796 62.30387878417969 364.2122311592102 54.61272430419922 365.65624237060547 C 47.11585235595703 367.0634322166443 41.051971435546875 365.25673055648804 36.419822692871094 360.226318359375 C 31.783477783203125 355.20142936706543 29.46845245361328 347.91141271591187 29.46845245361328 338.35135889053345 C 29.46845245361328 338.35135889053345 29.46845245361328 182.80134201049805 29.46845245361328 182.80134201049805 C 29.46845245361328 180.7718710899353 28.47857666015625 179.9372534751892 26.510154724121094 180.30669450759888 C 26.510154724121094 180.30669450759888 4.0275115966796875 184.52826404571533 4.0275115966796875 184.52826404571533 C 2.0540542602539062 184.8983187675476 1.0700531005859375 186.10299110412598 1.0700531005859375 188.13368940353394 C 1.0700531005859375 188.13368940353394 1.0700531005859375 340.63366985321045 1.0700531005859375 340.63366985321045 C 1.0700531005859375 358.73382568359375 5.9510345458984375 372.4043712615967 15.712577819824219 381.6514434814453 C 25.47454071044922 390.9040389060974 38.439857482910156 394.00746631622314 54.61272430419922 390.9709310531616 C 54.61272430419922 390.9709310531616 54.61272430419922 390.9709310531616 54.61272430419922 390.9709310531616 Z M 184.77111053466797 366.5338182449341 C 200.34854125976562 363.6095881462097 213.02222442626953 356.09741592407227 222.78460693359375 343.9948468208313 C 232.5457305908203 331.8965735435486 237.42797088623047 317.3030390739441 237.42797088623047 300.22344875335693 C 237.42797088623047 290.87266302108765 235.80111694335938 283.0953769683838 232.5457305908203 276.89220428466797 C 229.29286193847656 270.6927137374878 224.65567779541016 265.3112711906433 218.6429901123047 260.7448081970215 C 212.62484741210938 256.18448209762573 203.6018295288086 250.45385026931763 191.57477569580078 243.56150436401367 C 179.3450469970703 236.50714445114136 171.0622329711914 230.5899510383606 166.72633361816406 225.80931043624878 C 162.3858184814453 221.03419303894043 160.21807861328125 214.57879400253296 160.21807861328125 206.44434070587158 C 160.21807861328125 197.4985899925232 162.33546447753906 190.13861274719238 166.57820892333984 184.35704469680786 C 170.81717681884766 178.5816135406494 176.3863296508789 175.04369401931763 183.2923812866211 173.74635457992554 C 190.5857391357422 172.37721347808838 196.50233459472656 174.06424570083618 201.041748046875 178.80131435394287 C 205.57528686523438 183.54574728012085 207.8454132080078 190.4865746498108 207.8454132080078 199.63729763031006 C 207.8454132080078 199.63729763031006 207.8454132080078 207.87239599227905 207.8454132080078 207.87239599227905 C 207.8454132080078 209.90677642822266 208.82941436767578 210.7370982170105 210.80287170410156 210.36704349517822 C 210.80287170410156 210.36704349517822 232.69469451904297 206.2565517425537 232.69469451904297 206.2565517425537 C 234.66311645507812 205.88711071014404 235.65299224853516 204.68673419952393 235.65299224853516 202.6511263847351 C 235.65299224853516 202.6511263847351 235.65299224853516 195.0260353088379 235.65299224853516 195.0260353088379 C 235.65299224853516 178.150803565979 230.86852264404297 165.4247260093689 221.30503845214844 156.850257396698 C 211.7369384765625 148.2764024734497 199.06787109375 145.47000074386597 183.2923812866211 148.43166589736938 C 168.103515625 151.28286695480347 155.7810516357422 158.4286665916443 146.3144989013672 169.86170053482056 C 136.84878540039062 181.29903030395508 132.11550903320312 195.249418258667 132.11550903320312 211.7202286720276 C 132.11550903320312 222.0903525352478 134.08393096923828 230.77037572860718 138.03168487548828 237.75416135787964 C 141.97398376464844 244.74408388137817 146.80419158935547 250.4428038597107 152.52734375 254.8576855659485 C 158.24462127685547 259.2744083404541 166.13509368896484 264.4030108451843 176.19288635253906 270.2391972541809 C 185.26080322265625 275.45187520980835 191.82025146484375 279.4580397605896 195.86451721191406 282.2533950805664 C 199.90416717529297 285.0555009841919 203.1587142944336 288.4620909690857 205.62648010253906 292.46886920928955 C 208.09088897705078 296.48055696487427 209.3241424560547 301.4342579841614 209.3241424560547 307.32874488830566 C 209.3241424560547 316.07443284988403 207.003662109375 323.57678604125977 202.37277221679688 329.8321223258972 C 197.7364273071289 336.0923681259155 191.87102508544922 339.8861961364746 184.77111053466797 341.2185158729553 C 177.67161560058594 342.55267667770386 171.8523712158203 340.8521432876587 167.3179931640625 336.1083240509033 C 162.77899932861328 331.370641708374 160.5143280029297 324.323646068573 160.5143280029297 314.96795082092285 C 160.5143280029297 314.96795082092285 160.5143280029297 308.2584843635559 160.5143280029297 308.2584843635559 C 160.5143280029297 306.22778606414795 159.5252914428711 305.39439582824707 157.55519104003906 305.76383686065674 C 157.55519104003906 305.76383686065674 135.66504669189453 309.87371492385864 135.66504669189453 309.87371492385864 C 133.69158935546875 310.2443833351135 132.70674896240234 311.4490556716919 132.70674896240234 313.47914028167725 C 132.70674896240234 313.47914028167725 132.70674896240234 321.71423864364624 132.70674896240234 321.71423864364624 C 132.70674896240234 337.9843726158142 137.4857635498047 350.24895572662354 147.05470275878906 358.51780700683594 C 156.61734771728516 366.78727197647095 169.18948364257812 369.45927572250366 184.77111053466797 366.5338182449341 C 184.77111053466797 366.5338182449341 184.77111053466797 366.5338182449341 184.77111053466797 366.5338182449341 Z M 309.3091506958008 343.1522512435913 C 325.4769821166992 340.1175570487976 338.44775390625 332.6495704650879 348.2092971801758 320.7513599395752 C 357.9712600708008 308.8537631034851 362.8530807495117 294.56952810287476 362.8530807495117 277.8949728012085 C 362.8530807495117 277.8949728012085 362.8530807495117 273.31991815567017 362.8530807495117 273.31991815567017 C 362.8530807495117 271.2892198562622 361.8636245727539 270.4552159309387 359.8943634033203 270.825270652771 C 359.8943634033203 270.825270652771 337.4121398925781 273.8262119293213 337.4121398925781 273.8262119293213 C 335.4382629394531 274.19626665115356 334.45384216308594 275.40155267715454 334.45384216308594 277.4322509765625 C 334.45384216308594 277.4322509765625 334.45384216308594 285.361732006073 334.45384216308594 285.361732006073 C 334.45384216308594 293.70177125930786 332.13336181640625 300.8469572067261 327.5024719238281 306.79667615890503 C 322.86612701416016 312.75191831588745 316.8018264770508 316.43098640441895 309.3091506958008 317.83756256103516 C 301.8122787475586 319.244752407074 295.79833221435547 317.8338804244995 291.26353454589844 313.6006507873535 C 286.7245407104492 309.3723306655884 284.46028900146484 303.08753728866577 284.46028900146484 294.7474980354309 C 284.46028900146484 294.7474980354309 284.46028900146484 182.5079984664917 284.46028900146484 182.5079984664917 C 284.46028900146484 174.1722550392151 286.7245407104492 167.0368881225586 291.26353454589844 161.100670337677 C 295.79833221435547 155.16874837875366 301.8122787475586 151.49520349502563 309.3091506958008 150.0873999595642 C 316.8018264770508 148.680823802948 322.86612701416016 150.0873999595642 327.5024719238281 154.2960820198059 C 332.13336181640625 158.5121283531189 334.45384216308594 164.78648900985718 334.45384216308594 173.12100505828857 C 334.45384216308594 173.12100505828857 334.45384216308594 181.0517134666443 334.45384216308594 181.0517134666443 C 334.45384216308594 183.0867075920105 335.4382629394531 183.91702938079834 337.4121398925781 183.54574728012085 C 337.4121398925781 183.54574728012085 359.8943634033203 178.10539054870605 359.8943634033203 178.10539054870605 C 361.8636245727539 177.73533582687378 362.8530807495117 176.53495931625366 362.8530807495117 174.49935150146484 C 362.8530807495117 174.49935150146484 362.8530807495117 169.61990690231323 362.8530807495117 169.61990690231323 C 362.8530807495117 152.94964742660522 357.9712600708008 140.545756816864 348.2092971801758 132.41375827789307 C 338.44775390625 124.28666925430298 325.4769821166992 121.73740339279175 309.3091506958008 124.77209758758545 C 293.3347625732422 127.77181148529053 280.466796875 135.17290592193604 270.7044143676758 146.96494817733765 C 260.9424514770508 158.76251363754272 256.0614700317383 172.9994945526123 256.0614700317383 189.6691403388977 C 256.0614700317383 189.6691403388977 256.0614700317383 297.94420623779297 256.0614700317383 297.94420623779297 C 256.0614700317383 314.61937522888184 260.9424514770508 327.0711336135864 270.7044143676758 335.3025498390198 C 280.466796875 343.53519344329834 293.3347625732422 346.1513514518738 309.3091506958008 343.1522512435913 C 309.3091506958008 343.1522512435913 309.3091506958008 343.1522512435913 309.3091506958008 343.1522512435913 Z M 435.0317687988281 319.54791498184204 C 450.6079406738281 316.6236848831177 463.28204345703125 309.1115126609802 473.0448455810547 297.00894355773926 C 482.8068084716797 284.91128396987915 487.68737030029297 270.31713581085205 487.68737030029297 253.2375454902649 C 487.68737030029297 243.8867597579956 486.0613555908203 236.11008739471436 482.8068084716797 229.90630102157593 C 479.55226135253906 223.70742416381836 474.91675567626953 218.32536792755127 468.9032287597656 213.75890493392944 C 462.8846664428711 209.1991925239563 453.86206817626953 203.46733331680298 441.83585357666016 196.57621479034424 C 429.60570526123047 189.52185487747192 421.3216323852539 183.60466146469116 416.9869918823242 178.82340717315674 C 412.64647674560547 174.0482897758484 410.4787368774414 167.5922770500183 410.4787368774414 159.45782375335693 C 410.4787368774414 150.51268672943115 412.5961227416992 143.15332317352295 416.8384475708008 137.37175512313843 C 421.0769958496094 131.59509658813477 426.64698791503906 128.0577907562256 433.55261993408203 126.7610650062561 C 440.8459777832031 125.39131021499634 446.76341247558594 127.07772874832153 451.30240631103516 131.81663846969604 C 455.83636474609375 136.5598440170288 458.10565185546875 143.50128507614136 458.10565185546875 152.6507806777954 C 458.10565185546875 152.6507806777954 458.10565185546875 160.8858790397644 458.10565185546875 160.8858790397644 C 458.10565185546875 162.92148685455322 459.09007263183594 163.75119495391846 461.0635299682617 163.38114023208618 C 461.0635299682617 163.38114023208618 482.95409393310547 159.27064847946167 482.95409393310547 159.27064847946167 C 484.9241943359375 158.901207447052 485.9128112792969 157.70083093643188 485.9128112792969 155.66583681106567 C 485.9128112792969 155.66583681106567 485.9128112792969 148.04013204574585 485.9128112792969 148.04013204574585 C 485.9128112792969 131.16551399230957 481.1287612915039 118.43882274627686 471.5656967163086 109.86435413360596 C 461.99717712402344 101.29049921035767 449.32852935791016 98.48348379135132 433.55261993408203 101.44576263427734 C 418.36375427246094 104.29757738113403 406.04170989990234 111.44337701797485 396.57515716552734 122.87579727172852 C 387.10902404785156 134.31312704086304 382.37574768066406 148.26474237442017 382.37574768066406 164.73493909835815 C 382.37574768066406 175.10444927215576 384.34500885009766 183.78447246551514 388.29150390625 190.7688717842102 C 392.2350616455078 197.75818061828613 397.06526947021484 203.45628690719604 402.7871627807617 207.87239599227905 C 408.5052795410156 212.28911876678467 416.3953323364258 217.4177212715149 426.45228576660156 223.25390768051147 C 435.5214614868164 228.46658563613892 442.08007049560547 232.47275018692017 446.1243362426758 235.26810550689697 C 450.16524505615234 238.06898403167725 453.41895294189453 241.47557401657104 455.88755798339844 245.4829659461975 C 458.3507080078125 249.49526739120483 459.58480072021484 254.44896841049194 459.58480072021484 260.34345531463623 C 459.58480072021484 269.088529586792 457.26390075683594 276.59149646759033 452.6330108642578 282.8462190628052 C 447.9975051879883 289.1070785522461 442.13084411621094 292.9009065628052 435.0317687988281 294.2332262992859 C 427.9322738647461 295.5661597251892 422.11302947998047 293.86624002456665 417.5778121948242 289.1224207878113 C 413.0392379760742 284.384738445282 410.7737274169922 277.33774280548096 410.7737274169922 267.9820475578308 C 410.7737274169922 267.9820475578308 410.7737274169922 261.2731947898865 410.7737274169922 261.2731947898865 C 410.7737274169922 259.2424964904785 409.7851104736328 258.4078788757324 407.81626892089844 258.7779335975647 C 407.81626892089844 258.7779335975647 385.9257049560547 262.8878116607666 385.9257049560547 262.8878116607666 C 383.9522476196289 263.2584800720215 382.9674072265625 264.46315240859985 382.9674072265625 266.4932370185852 C 382.9674072265625 266.4932370185852 382.9674072265625 274.7283353805542 382.9674072265625 274.7283353805542 C 382.9674072265625 290.99785566329956 387.7460021972656 303.2636661529541 397.31494140625 311.5319037437439 C 406.87842559814453 319.8013687133789 419.4505615234375 322.4733724594116 435.0317687988281 319.54791498184204 C 435.0317687988281 319.54791498184204 435.0317687988281 319.54791498184204 435.0317687988281 319.54791498184204 Z M 606.9050903320312 71.33938694000244 C 606.9050903320312 71.33938694000244 500.70513916015625 91.27815628051758 500.70513916015625 91.27815628051758 C 498.73126220703125 91.64882469177246 497.74642181396484 92.85349702835083 497.74642181396484 94.88358163833618 C 497.74642181396484 94.88358163833618 497.74642181396484 114.09881114959717 497.74642181396484 114.09881114959717 C 497.74642181396484 116.13380527496338 498.73126220703125 116.96412706375122 500.70513916015625 116.59284496307373 C 500.70513916015625 116.59284496307373 537.3871917724609 109.70602226257324 537.3871917724609 109.70602226257324 C 538.1727142333984 109.55873680114746 538.5696716308594 109.89442491531372 538.5696716308594 110.70388126373291 C 538.5696716308594 110.70388126373291 538.5696716308594 294.61985063552856 538.5696716308594 294.61985063552856 C 538.5696716308594 296.65361738204956 539.554931640625 297.48455286026 541.52880859375 297.1138844490051 C 541.52880859375 297.1138844490051 564.0110321044922 292.8923149108887 564.0110321044922 292.8923149108887 C 565.9794540405273 292.522873878479 566.9693298339844 291.3224973678589 566.9693298339844 289.2875032424927 C 566.9693298339844 289.2875032424927 566.9693298339844 105.37276124954224 566.9693298339844 105.37276124954224 C 566.9693298339844 104.56207752227783 567.3612518310547 104.07849025726318 568.152229309082 103.92997741699219 C 568.152229309082 103.92997741699219 606.9050903320312 96.6546893119812 606.9050903320312 96.6546893119812 C 608.8735122680664 96.28463459014893 609.8633880615234 95.0836443901062 609.8633880615234 93.0492639541626 C 609.8633880615234 93.0492639541626 609.8633880615234 73.83403444290161 609.8633880615234 73.83403444290161 C 609.8633880615234 71.80456352233887 608.8735122680664 70.96994590759277 606.9050903320312 71.33938694000244 C 606.9050903320312 71.33938694000244 606.9050903320312 71.33938694000244 606.9050903320312 71.33938694000244 Z M 672.8738708496094 274.8940315246582 C 689.2414398193359 271.82128858566284 702.4052352905273 264.2692265510559 712.366096496582 252.2298674583435 C 722.3223419189453 240.19541788101196 727.305290222168 225.73996353149414 727.305290222168 208.8598222732544 C 727.305290222168 208.8598222732544 727.305290222168 102.41477823257446 727.305290222168 102.41477823257446 C 727.305290222168 85.53954648971558 722.3223419189453 72.90306758880615 712.366096496582 64.50227308273315 C 702.4052352905273 56.106388092041016 689.2414398193359 53.44113492965698 672.8738708496094 56.51449155807495 C 656.7005844116211 59.551026821136475 643.6844940185547 67.13193225860596 633.8247604370117 79.24800252914429 C 623.961669921875 91.37020969390869 619.0345306396484 105.86739492416382 619.0345306396484 122.7426266670227 C 619.0345306396484 122.7426266670227 619.0345306396484 229.18767070770264 619.0345306396484 229.18767070770264 C 619.0345306396484 246.06719827651978 623.961669921875 258.6619462966919 633.8247604370117 266.97559690475464 C 643.6844940185547 275.29415702819824 656.7005844116211 277.9305667877197 672.8738708496094 274.8940315246582 C 672.8738708496094 274.8940315246582 672.8738708496094 274.8940315246582 672.8738708496094 274.8940315246582 Z M 672.8738708496094 249.57934284210205 C 665.1818771362305 251.0227403640747 659.0164489746094 249.48790311813354 654.385139465332 244.96808052062988 C 649.7492141723633 240.45316743850708 647.4325103759766 233.82041215896606 647.4325103759766 225.0753378868103 C 647.4325103759766 225.0753378868103 647.4325103759766 115.88526105880737 647.4325103759766 115.88526105880737 C 647.4325103759766 107.14570999145508 649.7492141723633 99.64335680007935 654.385139465332 93.38249731063843 C 659.0164489746094 87.12838840484619 665.1818771362305 83.27380514144897 672.8738708496094 81.8291802406311 C 680.7597274780273 80.348961353302 687.0724411010742 81.86047840118408 691.8057174682617 86.35759449005127 C 696.5389938354492 90.8583927154541 698.9064712524414 97.481942653656 698.9064712524414 106.2214937210083 C 698.9064712524414 106.2214937210083 698.9064712524414 215.41157054901123 698.9064712524414 215.41157054901123 C 698.9064712524414 224.156644821167 696.5389938354492 231.66820335388184 691.8057174682617 237.9419503211975 C 687.0724411010742 244.21999311447144 680.7597274780273 248.09851026535034 672.8738708496094 249.57934284210205 C 672.8738708496094 249.57934284210205 672.8738708496094 249.57934284210205 672.8738708496094 249.57934284210205 Z M 836.163932800293 241.79714727401733 C 836.163932800293 241.79714727401733 859.2382354736328 237.46449995040894 859.2382354736328 237.46449995040894 C 861.0132141113281 237.1312665939331 861.9002838134766 236.2549180984497 861.9002838134766 234.82993125915527 C 861.9002838134766 234.82993125915527 861.6048736572266 233.665762424469 861.6048736572266 233.665762424469 C 861.6048736572266 233.665762424469 831.1352462768555 145.1410632133484 831.1352462768555 145.1410632133484 C 830.9363479614258 144.56849098205566 831.1352462768555 143.92043495178223 831.7269058227539 143.1999635696411 C 840.6017990112305 137.4687180519104 847.6501007080078 129.38335990905762 852.8781051635742 118.9463438987732 C 858.1006546020508 108.51116895675659 860.7169647216797 96.88727760314941 860.7169647216797 84.07712459564209 C 860.7169647216797 72.28753709793091 858.5958023071289 62.16288900375366 854.3568344116211 53.70379400253296 C 850.1132507324219 45.249608516693115 844.1509170532227 39.20292663574219 836.4601821899414 35.561293601989746 C 828.7686080932617 31.92518377304077 819.8932952880859 31.046380519866943 809.8363418579102 32.93470287322998 C 809.8363418579102 32.93470287322998 756.8840713500977 42.87585783004761 756.8840713500977 42.87585783004761 C 754.9101943969727 43.2471399307251 753.9261932373047 44.45181226730347 753.9261932373047 46.482510566711426 C 753.9261932373047 46.482510566711426 753.9261932373047 254.18692302703857 753.9261932373047 254.18692302703857 C 753.9261932373047 256.2219171524048 754.9101943969727 257.0522389411926 756.8840713500977 256.68157052993774 C 756.8840713500977 256.68157052993774 779.3662948608398 252.4606146812439 779.3662948608398 252.4606146812439 C 781.3359756469727 252.09055995941162 782.324592590332 250.8895697593689 782.324592590332 248.85457563400269 C 782.324592590332 248.85457563400269 782.324592590332 158.27033472061157 782.324592590332 158.27033472061157 C 782.324592590332 157.46026468276978 782.7177734375 156.97606372833252 783.5087509155273 156.82816457748413 C 783.5087509155273 156.82816457748413 803.9193267822266 152.99567413330078 803.9193267822266 152.99567413330078 C 804.5114059448242 152.88459634780884 804.904167175293 153.11595726013184 805.1030654907227 153.68914318084717 C 805.1030654907227 153.68914318084717 832.6148147583008 240.02358484268188 832.6148147583008 240.02358484268188 C 833.2056350708008 241.54185247421265 834.3893737792969 242.13038063049316 836.163932800293 241.79714727401733 C 836.163932800293 241.79714727401733 836.163932800293 241.79714727401733 836.163932800293 241.79714727401733 Z M 783.5087509155273 63.192659854888916 C 783.5087509155273 63.192659854888916 805.3980560302734 59.08339548110962 805.3980560302734 59.08339548110962 C 813.4828109741211 57.56512784957886 819.9906463623047 59.546117305755615 824.9232406616211 65.02513647079468 C 829.8499603271484 70.50476932525635 832.3185653686523 78.73373079299927 832.3185653686523 89.71386194229126 C 832.3185653686523 100.28895807266235 829.8499603271484 109.24023199081421 824.9232406616211 116.57013845443726 C 819.9906463623047 123.90065860748291 813.4828109741211 128.32535934448242 805.3980560302734 129.84301328659058 C 805.3980560302734 129.84301328659058 783.5087509155273 133.95289134979248 783.5087509155273 133.95289134979248 C 782.7177734375 134.10140419006348 782.324592590332 133.77001190185547 782.324592590332 132.9550323486328 C 782.324592590332 132.9550323486328 782.324592590332 64.63544368743896 782.324592590332 64.63544368743896 C 782.324592590332 63.82475996017456 782.7177734375 63.34178638458252 783.5087509155273 63.192659854888916 C 783.5087509155273 63.192659854888916 783.5087509155273 63.192659854888916 783.5087509155273 63.192659854888916 Z M 981.1129684448242 23.348260402679443 C 981.1129684448242 23.348260402679443 981.1129684448242 4.1336445808410645 981.1129684448242 4.1336445808410645 C 981.1129684448242 2.1029462814331055 980.1235122680664 1.2689423561096191 978.1542510986328 1.638383388519287 C 978.1542510986328 1.638383388519287 884.9708099365234 19.13344144821167 884.9708099365234 19.13344144821167 C 882.9969329833984 19.504109859466553 882.012092590332 20.708782196044922 882.012092590332 22.738253116607666 C 882.012092590332 22.738253116607666 882.012092590332 230.13888931274414 882.012092590332 230.13888931274414 C 882.012092590332 232.17388343811035 882.9969329833984 233.0042052268982 884.9708099365234 232.6335368156433 C 884.9708099365234 232.6335368156433 978.1542510986328 215.13909244537354 978.1542510986328 215.13909244537354 C 980.1235122680664 214.76903772354126 981.1129684448242 213.56804752349854 981.1129684448242 211.53305339813232 C 981.1129684448242 211.53305339813232 981.1129684448242 192.31843757629395 981.1129684448242 192.31843757629395 C 981.1129684448242 190.287739276886 980.1235122680664 189.4537353515625 978.1542510986328 189.82379007339478 C 978.1542510986328 189.82379007339478 911.5946502685547 202.3197340965271 911.5946502685547 202.3197340965271 C 910.8040924072266 202.4682469367981 910.4113311767578 202.1368546485901 910.4113311767578 201.32187509536743 C 910.4113311767578 201.32187509536743 910.4113311767578 134.8316946029663 910.4113311767578 134.8316946029663 C 910.4113311767578 134.0216245651245 910.8040924072266 133.53865098953247 911.5946502685547 133.39013814926147 C 911.5946502685547 133.39013814926147 952.4179000854492 125.72577095031738 952.4179000854492 125.72577095031738 C 954.3871612548828 125.35571622848511 955.3761978149414 124.15472602844238 955.3761978149414 122.12034559249878 C 955.3761978149414 122.12034559249878 955.3761978149414 102.9051160812378 955.3761978149414 102.9051160812378 C 955.3761978149414 100.87503147125244 954.3871612548828 100.04102754592896 952.4179000854492 100.41046857833862 C 952.4179000854492 100.41046857833862 911.5946502685547 108.07483577728271 911.5946502685547 108.07483577728271 C 910.8040924072266 108.22334861755371 910.4113311767578 107.8919563293457 910.4113311767578 107.07697677612305 C 910.4113311767578 107.07697677612305 910.4113311767578 40.89241361618042 910.4113311767578 40.89241361618042 C 910.4113311767578 40.081729888916016 910.8040924072266 39.59814262390137 911.5946502685547 39.44962978363037 C 911.5946502685547 39.44962978363037 978.1542510986328 26.953685760498047 978.1542510986328 26.953685760498047 C 980.1235122680664 26.58363103866577 981.1129684448242 25.383254528045654 981.1129684448242 23.348260402679443 C 981.1129684448242 23.348260402679443 981.1129684448242 23.348260402679443 981.1129684448242 23.348260402679443 Z"/></g></svg>