<svg version="1.1" xmlns="http://www.w3.org/2000/svg" xmlns:xlink="http://www.w3.org/1999/xlink" width="880" height="373"><defs/><g><path fill="none" stroke="white" stroke-width="3" paint-order="stroke fill markers" fill-rule="evenodd" d=" M 496.4289321899414 72.3672924041748 C 496.4289321899414 72.3672924041748 390.2289810180664 92.30606174468994 390.2289810180664 92.30606174468994 C 388.2555236816406 92.67611646652222 387.2706832885742 93.88078880310059 387.2706832885742 95.91148710250854 C 387.2706832885742 95.91148710250854 387.2706832885742 115.12610292434692 387.2706832885742 115.12610292434692 C 387.2706832885742 117.16109704971313 388.2555236816406 117.99141883850098 390.2289810180664 117.6207504272461 C 390.2289810180664 117.6207504272461 426.9110336303711 110.7339277267456 426.9110336303711 110.7339277267456 C 427.6969757080078 110.58664226531982 428.09393310546875 110.92110300064087 428.09393310546875 111.73178672790527 C 428.09393310546875 111.73178672790527 428.09393310546875 295.6465287208557 428.09393310546875 295.6465287208557 C 428.09393310546875 297.6815228462219 429.07877349853516 298.51184463500977 431.05265045166016 298.1411762237549 C 431.05265045166016 298.1411762237549 453.53487396240234 293.92022037506104 453.53487396240234 293.92022037506104 C 455.5032958984375 293.55016565322876 456.4923324584961 292.34978914260864 456.4923324584961 290.31479501724243 C 456.4923324584961 290.31479501724243 456.4923324584961 106.39943933486938 456.4923324584961 106.39943933486938 C 456.4923324584961 105.58936929702759 456.88551330566406 105.10578203201294 457.6760711669922 104.95788288116455 C 457.6760711669922 104.95788288116455 496.4289321899414 97.68198108673096 496.4289321899414 97.68198108673096 C 498.39735412597656 97.31254005432129 499.38639068603516 96.11154985427856 499.38639068603516 94.07655572891235 C 499.38639068603516 94.07655572891235 499.38639068603516 74.86132621765137 499.38639068603516 74.86132621765137 C 499.38639068603516 72.83124160766602 498.39735412597656 71.99723768234253 496.4289321899414 72.3672924041748 C 496.4289321899414 72.3672924041748 496.4289321899414 72.3672924041748 496.4289321899414 72.3672924041748 Z M 572.7488174438477 273.97838258743286 C 588.9174880981445 270.94246101379395 601.9335784912109 262.9608163833618 611.7979278564453 250.02424335479736 C 621.6564025878906 237.09319353103638 626.5881576538086 221.57973861694336 626.5881576538086 203.48019647598267 C 626.5881576538086 203.48019647598267 626.5881576538086 50.979602336883545 626.5881576538086 50.979602336883545 C 626.5881576538086 48.94951772689819 625.5995407104492 48.11551380157471 623.6298599243164 48.48556852340698 C 623.6298599243164 48.48556852340698 601.1476364135742 52.70652437210083 601.1476364135742 52.70652437210083 C 599.1745986938477 53.0759654045105 598.1897583007812 54.281251430511475 598.1897583007812 56.311949729919434 C 598.1897583007812 56.311949729919434 598.1897583007812 211.86135292053223 598.1897583007812 211.86135292053223 C 598.1897583007812 221.42140674591064 595.8696975708008 229.58224868774414 591.2371292114258 236.34694719314575 C 586.6020431518555 243.11716890335083 580.4408111572266 247.21906900405884 572.7488174438477 248.6630802154541 C 565.2519454956055 250.07027006149292 559.1872253417969 248.26356840133667 554.5563354492188 243.23376989364624 C 549.92041015625 238.20888090133667 547.6037063598633 230.9188642501831 547.6037063598633 221.3588104248047 C 547.6037063598633 221.3588104248047 547.6037063598633 65.80879354476929 547.6037063598633 65.80879354476929 C 547.6037063598633 63.77809524536133 546.6150894165039 62.94470500946045 544.6454086303711 63.31414604187012 C 544.6454086303711 63.31414604187012 522.1631851196289 67.53510189056396 522.1631851196289 67.53510189056396 C 520.1901473999023 67.90638399124146 519.2057266235352 69.11044263839722 519.2057266235352 71.14052724838257 C 519.2057266235352 71.14052724838257 519.2057266235352 223.64050769805908 519.2057266235352 223.64050769805908 C 519.2057266235352 241.74066352844238 524.0862884521484 255.41182279586792 533.8486709594727 264.65889501571655 C 543.6110534667969 273.91149044036865 556.5755310058594 277.0143041610718 572.7488174438477 273.97838258743286 C 572.7488174438477 273.97838258743286 572.7488174438477 273.97838258743286 572.7488174438477 273.97838258743286 Z M 760.3002777099609 178.07038593292236 C 760.3002777099609 166.0758261680603 758.0821838378906 156.12239742279053 753.6438980102539 148.21071338653564 C 749.2077102661133 140.303325176239 743.0406036376953 134.6463360786438 735.1555862426758 131.2471103668213 C 734.3654479980469 130.98936080932617 734.4623794555664 130.4615879058838 735.4509963989258 129.66624641418457 C 750.6356658935547 118.48052930831909 758.2298889160156 101.90416431427002 758.2298889160156 79.94451570510864 C 758.2298889160156 61.4442343711853 753.1495895385742 48.31557655334473 742.9948654174805 40.56222438812256 C 732.8351058959961 32.815009117126465 718.783821105957 30.620455741882324 700.8410110473633 33.98899698257446 C 700.8410110473633 33.98899698257446 655.5798950195312 42.486754417419434 655.5798950195312 42.486754417419434 C 653.6060180664062 42.857422828674316 652.6215972900391 44.062095165252686 652.6215972900391 46.09156608581543 C 652.6215972900391 46.09156608581543 652.6215972900391 253.4915885925293 652.6215972900391 253.4915885925293 C 652.6215972900391 255.52719640731812 653.6060180664062 256.35690450668335 655.5798950195312 255.98623609542847 C 655.5798950195312 255.98623609542847 704.9822082519531 246.7115478515625 704.9822082519531 246.7115478515625 C 721.5478363037109 243.6013698577881 734.9054946899414 236.01310014724731 745.0660934448242 223.93569231033325 C 755.2203979492188 211.86442136764526 760.3002777099609 196.57557678222656 760.3002777099609 178.07038593292236 C 760.3002777099609 178.07038593292236 760.3002777099609 178.07038593292236 760.3002777099609 178.07038593292236 Z M 682.2037353515625 62.802942752838135 C 682.2037353515625 62.802942752838135 701.1360015869141 59.249067306518555 701.1360015869141 59.249067306518555 C 710.4040756225586 57.509257793426514 717.6009216308594 59.16008234024048 722.731575012207 64.19172191619873 C 727.8571929931641 69.22888469696045 730.4223098754883 77.13565921783447 730.4223098754883 87.91020441055298 C 730.4223098754883 98.2803282737732 727.8571929931641 106.84436416625977 722.731575012207 113.60169839859009 C 717.6009216308594 120.35964632034302 710.4040756225586 124.6082181930542 701.1360015869141 126.34864139556885 C 701.1360015869141 126.34864139556885 682.2037353515625 129.90313053131104 682.2037353515625 129.90313053131104 C 681.4131774902344 130.05164337158203 681.0204162597656 129.72025108337402 681.0204162597656 128.90527153015137 C 681.0204162597656 128.90527153015137 681.0204162597656 64.24511289596558 681.0204162597656 64.24511289596558 C 681.0204162597656 63.43504285812378 681.4131774902344 62.95145559310913 682.2037353515625 62.802942752838135 C 682.2037353515625 62.802942752838135 682.2037353515625 62.802942752838135 682.2037353515625 62.802942752838135 Z M 702.6155700683594 221.53616666793823 C 702.6155700683594 221.53616666793823 682.2037353515625 225.36865711212158 682.2037353515625 225.36865711212158 C 681.4131774902344 225.51655626296997 681.0204162597656 225.18516397476196 681.0204162597656 224.3701844215393 C 681.0204162597656 224.3701844215393 681.0204162597656 153.00055932998657 681.0204162597656 153.00055932998657 C 681.0204162597656 152.19048929214478 681.4131774902344 151.70690202713013 682.2037353515625 151.55777549743652 C 682.2037353515625 151.55777549743652 702.9118194580078 147.6700530052185 702.9118194580078 147.6700530052185 C 711.9801559448242 145.96767854690552 719.0796508789062 147.9419174194336 724.2103042602539 153.58417797088623 C 729.3359222412109 159.23196172714233 731.9014587402344 167.9518747329712 731.9014587402344 179.74207592010498 C 731.9014587402344 191.33282804489136 729.2855682373047 200.77382612228394 724.0625991821289 208.05402374267578 C 718.8345947265625 215.3403582572937 711.6839065551758 219.83317852020264 702.6155700683594 221.53616666793823 C 702.6155700683594 221.53616666793823 702.6155700683594 221.53616666793823 702.6155700683594 221.53616666793823 Z M 878.9238204956055 22.819235801696777 C 878.9238204956055 22.819235801696777 878.9238204956055 3.6046199798583984 878.9238204956055 3.6046199798583984 C 878.9238204956055 1.5745353698730469 877.9347839355469 0.7405314445495605 875.9651031494141 1.109358787536621 C 875.9651031494141 1.109358787536621 782.7825012207031 18.60503053665161 782.7825012207031 18.60503053665161 C 780.8086242675781 18.975085258483887 779.8233642578125 20.179757595062256 779.8233642578125 22.209842205047607 C 779.8233642578125 22.209842205047607 779.8233642578125 229.61047840118408 779.8233642578125 229.61047840118408 C 779.8233642578125 231.6454725265503 780.8086242675781 232.47579431533813 782.7825012207031 232.10451221466064 C 782.7825012207031 232.10451221466064 875.9651031494141 214.61068153381348 875.9651031494141 214.61068153381348 C 877.9347839355469 214.2400131225586 878.9238204956055 213.03902292251587 878.9238204956055 211.00402879714966 C 878.9238204956055 211.00402879714966 878.9238204956055 191.78941297531128 878.9238204956055 191.78941297531128 C 878.9238204956055 189.75932836532593 877.9347839355469 188.92532444000244 875.9651031494141 189.2947654724121 C 875.9651031494141 189.2947654724121 809.4063415527344 201.79132318496704 809.4063415527344 201.79132318496704 C 808.6149444580078 201.93983602523804 808.2226028442383 201.60783004760742 808.2226028442383 200.79346418380737 C 808.2226028442383 200.79346418380737 808.2226028442383 134.30389738082886 808.2226028442383 134.30389738082886 C 808.2226028442383 133.49321365356445 808.6149444580078 133.0096263885498 809.4063415527344 132.8611135482788 C 809.4063415527344 132.8611135482788 850.2295913696289 125.19674634933472 850.2295913696289 125.19674634933472 C 852.1980133056641 124.82730531692505 853.1878890991211 123.62631511688232 853.1878890991211 121.59193468093872 C 853.1878890991211 121.59193468093872 853.1878890991211 102.37609148025513 853.1878890991211 102.37609148025513 C 853.1878890991211 100.34662055969238 852.1980133056641 99.5126166343689 850.2295913696289 99.88205766677856 C 850.2295913696289 99.88205766677856 809.4063415527344 107.54642486572266 809.4063415527344 107.54642486572266 C 808.6149444580078 107.69493770599365 808.2226028442383 107.36354541778564 808.2226028442383 106.54795217514038 C 808.2226028442383 106.54795217514038 808.2226028442383 40.363389015197754 808.2226028442383 40.363389015197754 C 808.2226028442383 39.55331897735596 808.6149444580078 39.06973171234131 809.4063415527344 38.92121887207031 C 809.4063415527344 38.92121887207031 875.9651031494141 26.42527484893799 875.9651031494141 26.42527484893799 C 877.9347839355469 26.055220127105713 878.9238204956055 24.85422992706299 878.9238204956055 22.819235801696777 C 878.9238204956055 22.819235801696777 878.9238204956055 22.819235801696777 878.9238204956055 22.819235801696777 Z M 46.26539611816406 371.5335216522217 C 46.26539611816406 371.5335216522217 68.74761962890625 367.31256580352783 68.74761962890625 367.31256580352783 C 70.7160415649414 366.94312477111816 71.705078125 365.74152088165283 71.705078125 363.70714044570923 C 71.705078125 363.70714044570923 71.705078125 276.4767122268677 71.705078125 276.4767122268677 C 71.705078125 276.4767122268677 72.00132751464844 274.89584827423096 72.00132751464844 274.89584827423096 C 72.00132751464844 274.89584827423096 113.1208267211914 149.1410665512085 113.1208267211914 149.1410665512085 C 113.71248626708984 146.79554557800293 112.92108917236328 145.82346153259277 110.75418853759766 146.2309513092041 C 110.75418853759766 146.2309513092041 87.08822631835938 150.67406272888184 87.08822631835938 150.67406272888184 C 85.31282806396484 151.00790977478027 84.12992858886719 152.0444312095642 83.53868865966797 153.7805585861206 C 83.53868865966797 153.7805585861206 58.393577575683594 242.68144941329956 58.393577575683594 242.68144941329956 C 58.19425964355469 243.12821531295776 57.899269104003906 243.38412380218506 57.50566864013672 243.45776653289795 C 57.10829162597656 243.53263664245605 56.81288146972656 243.3884196281433 56.61859893798828 243.0146827697754 C 56.61859893798828 243.0146827697754 31.473487854003906 163.55540370941162 31.473487854003906 163.55540370941162 C 30.88182830810547 162.0414319038391 29.69934844970703 161.44860792160034 27.92436981201172 161.78184127807617 C 27.92436981201172 161.78184127807617 4.257987976074219 166.2249526977539 4.257987976074219 166.2249526977539 C 2.483428955078125 166.55818605422974 1.59552001953125 167.439444065094 1.59552001953125 168.85952138900757 C 1.59552001953125 168.85952138900757 1.8917694091796875 170.02430391311646 1.8917694091796875 170.02430391311646 C 1.8917694091796875 170.02430391311646 43.01084899902344 280.3392734527588 43.01084899902344 280.3392734527588 C 43.01084899902344 280.3392734527588 43.307098388671875 281.80844593048096 43.307098388671875 281.80844593048096 C 43.307098388671875 281.80844593048096 43.307098388671875 369.0388741493225 43.307098388671875 369.0388741493225 C 43.307098388671875 371.0738682746887 44.29151916503906 371.90357637405396 46.26539611816406 371.5335216522217 C 46.26539611816406 371.5335216522217 46.26539611816406 371.5335216522217 46.26539611816406 371.5335216522217 Z M 180.56414031982422 349.06389713287354 C 196.93128967285156 345.9911541938782 210.09508514404297 338.43909215927124 220.05636596679688 326.39973306655884 C 230.01261138916016 314.3652834892273 234.9951400756836 299.90921545028687 234.9951400756836 283.0296878814697 C 234.9951400756836 283.0296878814697 234.9951400756836 176.5852575302124 234.9951400756836 176.5852575302124 C 234.9951400756836 159.71002578735352 230.01261138916016 147.07293319702148 220.05636596679688 138.6721386909485 C 210.09508514404297 130.27686738967896 196.93128967285156 127.61100053787231 180.56414031982422 130.68435716629028 C 164.39043426513672 133.7208924293518 151.37476348876953 141.3017978668213 141.51502990722656 153.41786813735962 C 131.65193939208984 165.53946161270142 126.72480010986328 180.03664684295654 126.72480010986328 196.91249227523804 C 126.72480010986328 196.91249227523804 126.72480010986328 303.35753631591797 126.72480010986328 303.35753631591797 C 126.72480010986328 320.2370638847351 131.65193939208984 332.8318119049072 141.51502990722656 341.14546251296997 C 151.37476348876953 349.4640226364136 164.39043426513672 352.10104608535767 180.56414031982422 349.06389713287354 C 180.56414031982422 349.06389713287354 180.56414031982422 349.06389713287354 180.56414031982422 349.06389713287354 Z M 180.56414031982422 323.7492084503174 C 172.8717269897461 325.19321966171265 166.70671844482422 323.6577687263489 162.07540893554688 319.1379461288452 C 157.4390640258789 314.6230330467224 155.1227798461914 307.9902777671814 155.1227798461914 299.24581718444824 C 155.1227798461914 299.24581718444824 155.1227798461914 190.0551266670227 155.1227798461914 190.0551266670227 C 155.1227798461914 181.3149619102478 157.4390640258789 173.81260871887207 162.07540893554688 167.55297660827637 C 166.70671844482422 161.29825401306152 172.8717269897461 157.4430570602417 180.56414031982422 155.99843215942383 C 188.44957733154297 154.51882696151733 194.7635498046875 156.0303440093994 199.49598693847656 160.526846408844 C 204.22884368896484 165.02825832366943 206.5959014892578 171.65119457244873 206.5959014892578 180.39197301864624 C 206.5959014892578 180.39197301864624 206.5959014892578 289.58204984664917 206.5959014892578 289.58204984664917 C 206.5959014892578 298.3265104293823 204.22884368896484 305.83806896209717 199.49598693847656 312.11181592941284 C 194.7635498046875 318.3904724121094 188.44957733154297 322.2683758735657 180.56414031982422 323.7492084503174 C 180.56414031982422 323.7492084503174 180.56414031982422 323.7492084503174 180.56414031982422 323.7492084503174 Z M 313.68040466308594 324.0720090866089 C 329.8482360839844 321.03608751296997 342.8643264770508 313.05444288253784 352.72867584228516 300.1178698539734 C 362.5875701904297 287.1868200302124 367.5197448730469 271.6733651161194 367.5197448730469 253.5738229751587 C 367.5197448730469 253.5738229751587 367.5197448730469 101.07384252548218 367.5197448730469 101.07384252548218 C 367.5197448730469 99.04375791549683 366.53028869628906 98.20914030075073 364.5614471435547 98.57919502258301 C 364.5614471435547 98.57919502258301 342.0796432495117 102.80015087127686 342.0796432495117 102.80015087127686 C 340.1057662963867 103.17020559310913 339.1209259033203 104.37549161911011 339.1209259033203 106.40496253967285 C 339.1209259033203 106.40496253967285 339.1209259033203 261.95559310913086 339.1209259033203 261.95559310913086 C 339.1209259033203 271.5156469345093 336.80086517333984 279.67587518692017 332.16871643066406 286.4405736923218 C 327.5323715209961 293.21079540252686 321.3711395263672 297.31269550323486 313.68040466308594 298.7567067146301 C 306.18353271484375 300.16389656066895 300.1192321777344 298.3578085899353 295.4866638183594 293.3280100822449 C 290.85115814208984 288.3031210899353 288.53529357910156 281.01310443878174 288.53529357910156 271.4524369239807 C 288.53529357910156 271.4524369239807 288.53529357910156 115.90303373336792 288.53529357910156 115.90303373336792 C 288.53529357910156 113.87233543395996 287.54625701904297 113.03833150863647 285.5778350830078 113.40777254104614 C 285.5778350830078 113.40777254104614 263.0951919555664 117.62872838973999 263.0951919555664 117.62872838973999 C 261.1217346191406 118.00001049041748 260.136474609375 119.20468282699585 260.136474609375 121.2347674369812 C 260.136474609375 121.2347674369812 260.136474609375 273.7347478866577 260.136474609375 273.7347478866577 C 260.136474609375 291.8336763381958 265.0178756713867 305.50544929504395 274.78025817871094 314.7525215148926 C 284.5413818359375 324.0051169395447 297.5079574584961 327.1079306602478 313.68040466308594 324.0720090866089 C 313.68040466308594 324.0720090866089 313.68040466308594 324.0720090866089 313.68040466308594 324.0720090866089 Z"/></g></svg>